<svg width="32" height="32" viewBox="0 0 32 32" fill="none" xmlns="http://www.w3.org/2000/svg">
<path fill-rule="evenodd" clip-rule="evenodd" d="M6.29289 9.79289C6.68342 9.40237 7.31658 9.40237 7.70711 9.79289L13.2071 15.2929C13.5976 15.6834 13.5976 16.3166 13.2071 16.7071L7.70711 22.2071C7.31658 22.5976 6.68342 22.5976 6.29289 22.2071C5.90237 21.8166 5.90237 21.1834 6.29289 20.7929L10.0858 17H3C2.44772 17 2 16.5523 2 16C2 15.4477 2.44772 15 3 15H10.0858L6.29289 11.2071C5.90237 10.8166 5.90237 10.1834 6.29289 9.79289Z" fill="black" style="fill:black;fill-opacity:1;"/>
<path fill-rule="evenodd" clip-rule="evenodd" d="M13 4C13 2.89543 13.8954 2 15 2H27C28.1046 2 29 2.89543 29 4V28C29 29.1046 28.1046 30 27 30H15C13.8954 30 13 29.1046 13 28V20.5C13 19.9477 13.4477 19.5 14 19.5C14.5523 19.5 15 19.9477 15 20.5V28H27V4H15V11.125C15 11.6773 14.5523 12.125 14 12.125C13.4477 12.125 13 11.6773 13 11.125V4ZM18.9231 7.33333C18.9231 6.78105 19.3708 6.33333 19.9231 6.33333H22.0769C22.6292 6.33333 23.0769 6.78105 23.0769 7.33333C23.0769 7.88562 22.6292 8.33333 22.0769 8.33333H19.9231C19.3708 8.33333 18.9231 7.88562 18.9231 7.33333ZM16.7692 24.6667C16.7692 24.1144 17.2169 23.6667 17.7692 23.6667H24.2308C24.7831 23.6667 25.2308 24.1144 25.2308 24.6667C25.2308 25.219 24.7831 25.6667 24.2308 25.6667H17.7692C17.2169 25.6667 16.7692 25.219 16.7692 24.6667Z" fill="black" style="fill:black;fill-opacity:1;"/>
</svg>
