<svg width="32" height="32" viewBox="0 0 32 32" fill="none" xmlns="http://www.w3.org/2000/svg">
<path fill-rule="evenodd" clip-rule="evenodd" d="M6.29289 9.79289C6.68342 9.40237 7.31658 9.40237 7.70711 9.79289L13.2071 15.2929C13.5976 15.6834 13.5976 16.3166 13.2071 16.7071L7.70711 22.2071C7.31658 22.5976 6.68342 22.5976 6.29289 22.2071C5.90237 21.8166 5.90237 21.1834 6.29289 20.7929L10.0858 17H3C2.44772 17 2 16.5523 2 16C2 15.4477 2.44772 15 3 15H10.0858L6.29289 11.2071C5.90237 10.8166 5.90237 10.1834 6.29289 9.79289Z" fill="black" style="fill:black;fill-opacity:1;"/>
<path d="M20 4H15V11.0858L18.5 14.5858C18.8905 14.9763 19.0858 15.4022 19.0858 16C19.0858 16.5978 18.8905 17.0237 18.5 17.4142L15 20.9142V28H17.7692C17.2169 28 16.7692 27.5523 16.7692 27C16.7692 26.4477 17.2169 26 17.7692 26H24.2308C24.7831 26 25.2308 26.4477 25.2308 27C25.2308 27.5523 24.7831 28 24.2308 28H27V4H22.1538C22.7061 4 23.1538 4.44772 23.1538 5C23.1538 5.55228 22.7061 6 22.1538 6H20C19.4477 6 19 5.55228 19 5C19 4.44772 19.4477 4 20 4Z" fill="black" style="fill:black;fill-opacity:1;"/>
<path fill-rule="evenodd" clip-rule="evenodd" d="M13 4C13 2.89543 13.8954 2 15 2H27C28.1046 2 29 2.89543 29 4V28C29 29.1046 28.1046 30 27 30H15C13.8954 30 13 29.1046 13 28V20.5C13 20.2348 13.1054 19.9804 13.2929 19.7929L16.0858 17C16.0858 17 16.5 16.5523 16.5 16C16.5 15.4477 16.0858 15 16.0858 15L13.2929 12.2071C13.1054 12.0196 13 11.7652 13 11.5V4ZM20 4H15V11.0858L18.5 14.5858C18.8905 14.9763 19.0858 15.4022 19.0858 16C19.0858 16.5978 18.8905 17.0237 18.5 17.4142L15 20.9142V28H17.7692H24.2308H27V4H22.1538H20Z" fill="black" style="fill:black;fill-opacity:1;"/>
</svg>
