<svg width="32" height="32" viewBox="0 0 32 32" fill="none" xmlns="http://www.w3.org/2000/svg">
<path fill-rule="evenodd" clip-rule="evenodd" d="M7 3H13.4V5H7C5.89543 5 5 5.89543 5 7V25C5 26.1046 5.89543 27 7 27H25C26.1046 27 27 26.1046 27 25V18.6H29V25C29 27.2091 27.2091 29 25 29H7C4.79086 29 3 27.2091 3 25V7C3 4.79086 4.79086 3 7 3ZM29 4C29 3.44772 28.5523 3 28 3H20C19.4477 3 19 3.44772 19 4C19 4.55228 19.4477 5 20 5L25.5858 5L15.2929 15.2929C14.9024 15.6834 14.9024 16.3166 15.2929 16.7071C15.6834 17.0976 16.3166 17.0976 16.7071 16.7071L27 6.41421V12C27 12.5523 27.4477 13 28 13C28.5523 13 29 12.5523 29 12V4Z" fill="black" style="fill:black;fill-opacity:1;"/>
</svg>
