<svg width="32" height="32" viewBox="0 0 32 32" fill="none" xmlns="http://www.w3.org/2000/svg">
<path opacity="0.2" d="M4 5C4 4.44772 4.44772 4 5 4H27C27.5523 4 28 4.44772 28 5V27C28 27.5523 27.5523 28 27 28H5C4.44772 28 4 27.5523 4 27V5Z" fill="black" style="fill:black;fill-opacity:1;"/>
<path fill-rule="evenodd" clip-rule="evenodd" d="M13.4 3H7C4.79086 3 3 4.79086 3 7V25C3 27.2091 4.79086 29 7 29H25C27.2091 29 29 27.2091 29 25V18.6H27V25C27 26.1046 26.1046 27 25 27H7C5.89543 27 5 26.1046 5 25V7C5 5.89543 5.89543 5 7 5H13.4V3ZM24.2071 9.20711L27.1464 12.1464C27.4614 12.4614 28 12.2383 28 11.7929L28 4.5C28 4.22386 27.7761 4 27.5 4L20.2071 4C19.7617 4 19.5386 4.53857 19.8536 4.85355L22.7929 7.79289L15.2929 15.2929C14.9024 15.6834 14.9024 16.3166 15.2929 16.7071C15.6834 17.0976 16.3166 17.0976 16.7071 16.7071L24.2071 9.20711Z" fill="black" style="fill:black;fill-opacity:1;"/>
</svg>
