<svg width="24" height="24" viewBox="0 0 24 24" fill="none" xmlns="http://www.w3.org/2000/svg">
<path fill-rule="evenodd" clip-rule="evenodd" d="M21 3.99999C21 3.73478 20.8946 3.48042 20.7071 3.29289C20.5196 3.10535 20.2652 2.99999 20 2.99999L15 3C14.4477 3 14 3.44772 14 4C14 4.55229 14.4477 5 15 5L17.5858 5L11.2929 11.2929C10.9024 11.6834 10.9024 12.3166 11.2929 12.7071C11.6834 13.0976 12.3166 13.0976 12.7071 12.7071L19 6.4142V8.99999C19 9.55228 19.4477 9.99999 20 9.99999C20.5523 9.99999 21 9.55228 21 8.99999V3.99999ZM7 3H10.2V5H7C5.89543 5 5 5.89543 5 7V17C5 18.1046 5.89543 19 7 19H17C18.1046 19 19 18.1046 19 17V13.8H21V17C21 19.2091 19.2091 21 17 21H7C4.79086 21 3 19.2091 3 17V7C3 4.79086 4.79086 3 7 3Z" fill="black" style="fill:black;fill-opacity:1;"/>
</svg>
