<svg width="24" height="24" viewBox="0 0 24 24" fill="none" xmlns="http://www.w3.org/2000/svg">
<path fill-rule="evenodd" clip-rule="evenodd" d="M10.2 3H7C4.79086 3 3 4.79086 3 7V17C3 19.2091 4.79086 21 7 21H17C19.2091 21 21 19.2091 21 17V13.8H19V17C19 18.1046 18.1046 19 17 19H7C5.89543 19 5 18.1046 5 17V7C5 5.89543 5.89543 5 7 5H10.2V3ZM18.2071 7.20709L20.1465 9.14645C20.4614 9.46143 21 9.23835 21 8.79289V3.5C21 3.22386 20.7762 3 20.5 3H15.2071C14.7617 3 14.5386 3.53857 14.8536 3.85355L16.7929 5.79288L11.2929 11.2929C10.9024 11.6834 10.9024 12.3166 11.2929 12.7071C11.6834 13.0976 12.3166 13.0976 12.7071 12.7071L18.2071 7.20709Z" fill="black" style="fill:black;fill-opacity:1;"/>
</svg>
