<svg width="24" height="24" viewBox="0 0 24 24" fill="none" xmlns="http://www.w3.org/2000/svg">
<path opacity="0.2" d="M18.5 21V8.5H16.5H7.5H5.5V21H8.75H12H15.25H18.5Z" fill="black" style="fill:black;fill-opacity:1;"/>
<path fill-rule="evenodd" clip-rule="evenodd" d="M6.5 2C6.5 1.44772 6.94772 1 7.5 1H16.5C17.0523 1 17.5 1.44772 17.5 2V7.5H18.5C19.0523 7.5 19.5 7.94772 19.5 8.5V21C19.5 21.5523 19.0523 22 18.5 22H5.5C4.94772 22 4.5 21.5523 4.5 21V8.5C4.5 7.94772 4.94772 7.5 5.5 7.5H6.5V2ZM6.5 9.5V20H17.5V9.5H6.5ZM15.5 7.5H8.5V3H15.5V7.5Z" fill="black" style="fill:black;fill-opacity:1;"/>
<path fill-rule="evenodd" clip-rule="evenodd" d="M11 6H10V4H11V6Z" fill="black" style="fill:black;fill-opacity:1;"/>
<path fill-rule="evenodd" clip-rule="evenodd" d="M14 6H13V4H14V6Z" fill="black" style="fill:black;fill-opacity:1;"/>
</svg>
